# xmcd
#
# Track frame offsets: 
#        150
#        21388
#        37044
#        54884
#        80978
#        106574
#        130637
#        154958
#        178282
#        192182
#        207863
#        228063
#        244377
#        262265
#        282664
#        302906
#
# Disc length: 4303 seconds
#
# Revision: 0
# Processed by: cddbd v1.5.2PL0 Copyright (c) Steve Scherf et al.
# Submitted via: ExactAudioCopy v0.99pb4
#
DISCID=e810cd10
DTITLE=Scala and Kolacny Brothers - Very Best Of
DYEAR=2011
DGENRE=Acoustic
TTITLE0=Creep
TTITLE1=Dream On
TTITLE2=Someone New
TTITLE3=With Or Without You
TTITLE4=Gorecki
TTITLE5=Self-Fulfilling Prophecy
TTITLE6=Evigheden
TTITLE7=Nothing Else Matters
TTITLE8=Kleine Man
TTITLE9=Seashell
TTITLE10=Les Rêves Sont En Nous
TTITLE11=Ensemble
TTITLE12=I Fail (Feat. Regi)
TTITLE13=Everything In Its Right Place
TTITLE14=Ik Hou Van U
TTITLE15=Black Horse And The Cherry Tree
EXTD=
EXTT0=
EXTT1=
EXTT2=
EXTT3=
EXTT4=
EXTT5=
EXTT6=
EXTT7=
EXTT8=
EXTT9=
EXTT10=
EXTT11=
EXTT12=
EXTT13=
EXTT14=
EXTT15=
PLAYORDER=
